<?xml version="1.0" standalone="no"?>
<!DOCTYPE svg PUBLIC "-//W3C//DTD SVG 20010904//EN"
 "http://www.w3.org/TR/2001/REC-SVG-20010904/DTD/svg10.dtd">
<svg version="1.0" xmlns="http://www.w3.org/2000/svg"
 width="512.000000pt" height="512.000000pt" viewBox="0 0 512.000000 512.000000"
 preserveAspectRatio="xMidYMid meet">
<metadata>
Created by potrace 1.11, written by Peter Selinger 2001-2013
</metadata>
<g transform="translate(0.000000,512.000000) scale(0.100000,-0.100000)"
fill="#000000" stroke="none">
<path d="M3069 4174 c-28 -13 -56 -29 -63 -36 -45 -42 -58 -49 -72 -37 -8 6
-14 17 -14 24 0 6 -9 20 -20 30 -25 23 -80 13 -131 -23 -44 -31 -104 -118
-120 -173 -9 -29 -18 -39 -39 -44 -30 -7 -60 -50 -77 -115 -12 -44 -12 -161 2
-350 l6 -85 -16 43 c-33 90 -136 279 -183 337 -65 80 -158 153 -175 136 -9 -9
-9 -16 0 -31 10 -14 10 -20 0 -24 -7 -3 -3 -4 8 -1 21 4 83 -41 71 -52 -3 -4
-18 4 -34 18 -15 13 4 -10 43 -51 38 -41 71 -77 72 -79 2 -2 3 0 3 6 0 5 -18
29 -40 52 -41 43 -46 51 -31 51 8 0 83 -93 116 -145 18 -29 18 -29 0 -15 -17
14 -18 13 -12 -3 4 -10 7 -21 7 -23 0 -3 4 -3 9 1 5 3 13 0 17 -6 4 -8 3 -9
-4 -5 -17 10 -15 3 17 -58 15 -30 31 -52 35 -49 3 3 6 1 6 -5 0 -16 -13 -15
-29 1 -11 10 -12 8 -6 -10 3 -13 4 -23 1 -23 -8 0 -37 72 -31 78 3 3 5 -1 5
-8 0 -7 3 -11 6 -8 8 8 -43 105 -80 153 -45 59 -138 155 -161 167 -11 6 8 -15
43 -47 34 -31 62 -62 62 -68 0 -6 -19 7 -42 29 -76 71 -85 71 -15 -1 86 -89
87 -106 1 -26 -36 34 -69 59 -73 55 -3 -4 1 -9 9 -12 20 -6 150 -140 150 -154
0 -7 -5 -6 -15 2 -8 7 -15 8 -15 2 0 -5 7 -15 15 -22 11 -9 15 -9 15 -1 0 7 5
9 11 5 7 -4 7 1 -1 16 -23 42 -2 30 24 -14 28 -48 32 -61 16 -51 -14 9 -12 -6
5 -35 l15 -25 -6 30 c-8 38 8 23 26 -25 8 -19 24 -45 37 -58 25 -23 22 -48 -3
-38 -8 3 -14 -1 -14 -11 0 -9 3 -13 7 -10 3 4 12 2 20 -4 10 -9 13 -8 13 5 0
9 5 16 10 16 7 0 7 -6 2 -17 -5 -10 -7 -24 -5 -30 3 -7 0 -13 -7 -13 -6 0 -9
4 -6 9 3 5 -1 14 -9 21 -17 14 -18 10 -6 -23 7 -17 6 -24 -4 -24 -7 0 -10 8
-7 20 3 13 1 18 -5 14 -6 -4 -11 -1 -10 6 1 31 -4 48 -12 43 -5 -4 -7 4 -3 16
3 14 1 19 -6 14 -8 -5 -10 -1 -5 10 5 13 3 15 -7 9 -8 -5 -11 -4 -7 2 4 6 0
16 -8 23 -7 6 -11 19 -8 27 4 11 2 14 -5 9 -8 -5 -10 -1 -5 10 5 13 3 15 -7 9
-8 -5 -11 -4 -7 2 3 5 -36 54 -88 109 -52 54 -95 101 -95 103 0 6 43 -31 62
-54 10 -11 18 -15 18 -8 0 6 -17 25 -37 42 -35 29 -38 29 -55 14 -10 -9 -16
-18 -14 -21 3 -2 1 -15 -4 -28 -5 -13 -6 -24 -1 -24 5 0 9 -15 9 -33 0 -41 30
-103 70 -143 31 -30 93 -124 106 -159 21 -58 15 -123 -9 -85 -4 6 -15 6 -32
-1 -14 -5 -26 -8 -27 -7 -1 2 -15 30 -31 63 -17 34 -55 86 -89 120 l-59 60
-13 -31 c-7 -17 -16 -44 -20 -59 -5 -22 -4 -26 7 -20 11 6 11 5 2 -5 -12 -13
-7 -43 6 -35 4 2 8 -2 8 -9 0 -8 -9 -11 -24 -8 -12 2 -23 0 -24 -4 -1 -18 -8
-40 -23 -83 -9 -24 -13 -47 -10 -52 3 -5 1 -9 -4 -9 -5 0 -15 -19 -21 -43 -11
-37 -10 -48 7 -87 52 -125 4 -304 -112 -412 -22 -21 -44 -38 -48 -38 -4 0 -14
-13 -23 -30 -10 -19 -11 -30 -5 -30 6 0 4 -7 -4 -16 -23 -22 -20 -25 12 -12
72 32 172 118 172 149 0 7 -19 -9 -41 -35 -23 -26 -43 -45 -45 -43 -3 2 12 22
32 43 20 21 49 63 66 92 16 28 32 52 34 52 6 0 -14 -48 -32 -75 -9 -14 -12
-25 -7 -25 16 0 54 91 47 112 -4 14 -2 18 5 14 6 -4 14 0 18 9 3 10 0 21 -8
26 -12 7 -12 10 0 21 12 11 13 10 6 -2 -6 -12 -5 -13 5 -3 10 9 13 39 13 100
-1 71 -6 99 -27 146 -14 32 -21 55 -16 52 16 -10 51 -97 57 -142 3 -24 9 -40
13 -38 17 11 -26 143 -70 215 l-22 35 22 -25 c29 -32 69 -102 76 -132 3 -12 9
-54 14 -93 l7 -70 2 63 c0 35 -4 72 -9 82 -7 13 -7 21 0 25 12 8 13 45 1 45
-5 0 -7 -10 -4 -22 3 -13 -11 8 -31 46 -19 38 -43 78 -53 90 -16 18 -16 19 -1
8 9 -8 31 -36 48 -63 18 -27 34 -49 36 -49 7 0 -25 59 -58 110 l-30 45 31 -35
c38 -43 80 -128 88 -175 7 -45 18 -45 18 -1 0 19 -3 32 -7 29 -5 -2 -9 1 -9 6
-4 35 -33 91 -72 143 -20 26 -30 45 -22 41 8 -3 15 0 15 6 0 6 -5 11 -12 11
-6 0 -9 2 -6 5 20 20 119 -50 149 -105 18 -35 21 -47 21 -115 0 -65 -2 -69 22
44 3 13 12 34 21 47 57 88 125 8 120 -142 -4 -103 -56 -219 -138 -306 -58 -63
-11 -43 54 23 74 74 95 75 93 4 -2 -69 -43 -141 -146 -256 -33 -37 -154 -107
-216 -125 -76 -22 -238 -16 -282 11 -6 3 -10 -3 -10 -14 0 -11 -4 -22 -9 -25
-9 -6 -9 -31 0 -40 2 -3 17 -7 33 -10 16 -3 31 -8 34 -10 3 -3 12 0 21 7 14
11 14 10 2 -5 -11 -15 -11 -19 4 -24 13 -5 14 -9 3 -15 -7 -5 -17 -9 -23 -9
-5 0 -4 4 3 9 10 6 10 10 -2 20 -23 19 -66 24 -66 7 0 -8 -4 -17 -9 -20 -5 -4
-7 3 -4 14 3 11 1 20 -3 20 -13 -1 -57 -141 -47 -151 22 -21 264 -33 358 -17
91 16 269 85 286 110 3 6 9 9 13 9 13 -3 114 68 202 141 50 42 151 135 225
207 140 138 225 203 287 220 20 6 37 9 38 8 2 -2 -3 -20 -10 -41 -16 -46 -11
-92 16 -155 30 -70 62 -106 120 -133 l53 -25 -2 -120 c0 -66 3 -126 7 -134 7
-10 42 -14 144 -15 74 0 141 3 148 7 10 7 13 80 13 353 1 190 4 349 8 353 14
13 595 11 615 -3 15 -11 17 -41 16 -347 0 -185 3 -342 7 -349 9 -14 269 -20
291 -7 17 11 19 1804 2 1827 -9 13 -36 15 -143 15 -88 0 -136 -4 -144 -12 -9
-9 -12 -111 -13 -385 0 -204 -4 -377 -8 -384 -10 -17 -601 -15 -619 2 -9 10
-12 99 -12 380 1 261 -2 372 -11 383 -9 13 -35 16 -148 16 -75 -1 -140 -4
-144 -8 -4 -4 -7 -181 -8 -393 l0 -387 -54 0 -53 1 0 184 c1 124 -3 190 -11
199 -9 12 -8 13 4 6 11 -6 12 -5 4 4 -8 9 -22 7 -57 -8 -26 -11 -47 -18 -47
-16 0 8 78 45 95 45 8 0 15 4 15 10 0 5 -8 6 -17 3 -16 -6 -16 -5 -4 10 7 9
10 17 5 17 -5 0 -4 4 3 8 7 4 9 13 4 21 -7 11 -13 9 -30 -8 -12 -12 -21 -16
-21 -8 0 9 -2 9 -9 -1 -4 -8 -11 -13 -15 -13 -19 3 -29 0 -23 -6 4 -3 1 -13
-6 -21 -8 -11 -2 -9 17 3 16 11 40 21 53 23 21 2 22 1 11 -18 -7 -11 -16 -20
-21 -20 -4 0 -5 5 -1 12 4 7 3 8 -5 4 -6 -4 -8 -12 -5 -18 5 -8 1 -9 -10 -5
-9 4 -15 3 -12 -2 6 -9 -22 -26 -37 -22 -5 1 -6 -3 -2 -9 6 -9 -99 -115 -114
-115 -16 -1 -30 -17 -25 -30 4 -8 -9 -36 -28 -62 -19 -27 -38 -57 -42 -68 -5
-13 -10 -16 -13 -7 -3 6 -9 9 -15 6 -5 -4 -2 5 7 19 9 14 18 34 20 44 1 10 8
17 14 15 6 -1 11 4 11 10 0 10 2 10 8 0 6 -9 12 -6 20 12 7 16 8 27 1 31 -5 4
-9 3 -8 -2 1 -4 1 -15 0 -22 -1 -12 -4 -12 -13 -3 -10 10 -16 8 -31 -10 -11
-13 -17 -16 -14 -7 3 9 -1 16 -9 16 -17 0 -18 -9 -2 -25 9 -9 8 -17 -2 -37
-10 -18 -16 -22 -22 -13 -12 20 -9 31 7 25 11 -5 12 -1 4 20 -7 20 -6 30 6 43
8 9 12 19 9 23 -3 3 3 3 14 0 11 -2 23 1 27 8 5 7 4 10 -3 5 -6 -3 -14 -1 -18
5 -4 7 -3 9 3 6 6 -4 19 1 29 9 10 9 12 12 4 8 -13 -7 -13 -5 -1 9 7 9 18 14
23 10 6 -3 9 0 6 7 -5 16 80 102 93 94 5 -3 8 0 7 8 -2 7 3 12 10 10 8 -1 11
2 7 8 -4 7 -1 10 7 8 7 -2 13 2 13 7 0 6 -7 9 -15 8 -17 -2 27 34 53 43 9 3
14 10 11 16 -4 7 -2 8 4 4 17 -10 15 -14 -19 -31 -54 -29 -24 -26 37 2 50 24
59 32 61 56 1 15 0 27 -2 27 -13 0 -87 -39 -130 -69 -27 -19 -44 -27 -36 -18
11 15 11 17 -2 17 -8 0 -17 6 -20 14 -7 17 26 49 38 39 4 -5 5 -3 2 3 -9 15
60 71 137 111 17 9 17 10 -4 16 -12 3 -19 3 -16 0 8 -8 -41 -44 -63 -46 -11 0
-19 -4 -18 -8 1 -3 -23 -29 -53 -57 -42 -39 -60 -50 -77 -45 -14 3 -23 1 -23
-6 0 -6 3 -10 8 -10 43 7 66 -26 50 -72 -5 -15 -43 -62 -85 -105 -54 -57 -86
-101 -114 -159 -22 -44 -37 -71 -33 -60 3 11 7 25 8 30 2 6 8 23 14 38 7 16
12 32 12 37 0 5 11 29 24 54 14 26 22 46 19 46 -4 0 1 8 10 18 10 10 14 22 10
25 -9 9 -34 -13 -27 -24 3 -5 -1 -9 -8 -9 -10 0 -10 -2 1 -9 8 -5 9 -11 3 -15
-5 -3 -15 1 -22 9 -9 11 -4 29 25 89 21 41 44 77 51 80 8 3 14 12 14 20 0 10
6 13 18 10 14 -5 14 -4 3 4 -11 8 -12 14 -3 25 9 11 9 14 -3 14 -7 0 -14 -3
-13 -6 2 -21 -4 -31 -14 -25 -7 4 -10 4 -6 -1 9 -10 -10 -35 -26 -35 -6 0 -3
5 7 11 9 6 14 15 11 21 -4 6 -3 13 2 17 10 7 26 32 82 133 20 38 42 68 49 68
6 0 15 4 18 10 3 6 -1 7 -10 4 -11 -5 -14 -2 -9 10 3 9 10 14 14 11 5 -3 11
-1 15 5 4 6 10 8 15 5 4 -3 14 3 21 12 10 12 10 14 2 9 -25 -15 -12 5 24 37
60 53 113 90 107 74 -3 -8 -14 -18 -24 -23 -17 -8 -17 -10 -2 -24 14 -13 15
-12 9 3 -5 15 -3 17 12 12 11 -3 23 0 27 6 5 8 3 9 -6 4 -8 -5 -11 -3 -8 6 3
8 13 16 23 17 10 3 15 0 11 -7 -10 -15 4 -13 34 4 l25 15 -30 -6 c-20 -4 -27
-3 -20 3 15 15 63 24 70 13 3 -5 12 -7 20 -4 7 3 18 -3 24 -14 23 -43 70 -34
51 10 -29 62 -143 77 -241 32z m-209 -59 c5 3 11 1 14 -4 3 -5 -5 -16 -19 -25
-27 -17 -33 -10 -13 15 7 7 4 7 -6 -3 -22 -19 -13 -46 10 -27 8 6 14 8 14 3 0
-5 4 -2 10 6 5 8 12 11 16 7 4 -3 1 -14 -6 -22 -9 -11 -10 -19 -2 -27 7 -7 5
-19 -7 -42 -9 -17 -18 -42 -19 -56 0 -14 -6 -26 -12 -28 -5 -2 -10 -8 -10 -13
0 -5 -25 -53 -55 -106 -31 -54 -62 -120 -71 -148 -27 -87 -42 -148 -49 -200
-7 -57 -11 -63 -27 -47 -14 14 -18 52 -5 52 5 0 7 -9 4 -20 -3 -11 -2 -20 3
-20 4 0 10 14 12 30 4 23 1 30 -9 26 -19 -8 -29 23 -14 45 6 11 7 19 1 19 -6
0 -6 9 0 24 5 13 7 26 4 28 -2 3 5 45 17 94 12 49 23 112 24 139 4 66 12 109
23 132 5 10 15 29 21 43 17 36 90 114 109 117 9 1 19 8 21 15 3 10 5 10 9 0 2
-6 8 -10 12 -7z m-221 -267 c4 -13 7 -34 6 -48 -2 -23 -28 -154 -41 -210 -4
-14 -7 -35 -8 -47 -2 -13 -5 -25 -8 -28 -5 -5 -6 0 -11 60 -1 22 -5 45 -8 50
-10 17 -2 139 11 180 21 67 44 83 59 43z m446 -108 c-3 -5 -12 -10 -18 -10 -7
0 -6 4 3 10 19 12 23 12 15 0z m-731 -170 c15 -28 26 -53 24 -56 -3 -2 -15 15
-28 39 -13 23 -35 58 -50 77 -41 54 -45 69 -8 28 19 -20 47 -60 62 -88z m-69
60 c3 -5 1 -10 -4 -10 -6 0 -11 5 -11 10 0 6 2 10 4 10 3 0 8 -4 11 -10z m-75
-54 c19 -19 38 -32 41 -30 4 2 15 -6 25 -19 l19 -22 -22 19 c-13 11 -23 14
-23 9 0 -6 16 -23 36 -38 23 -18 34 -33 31 -45 -2 -9 4 -22 14 -29 11 -6 19
-16 19 -22 0 -5 -4 -7 -10 -4 -5 3 -10 -1 -10 -10 0 -9 4 -14 9 -10 5 3 13 0
18 -7 11 -19 13 -39 2 -32 -5 3 -9 -2 -9 -11 0 -9 4 -14 9 -11 5 3 14 -1 20
-8 8 -10 9 -16 1 -21 -5 -3 -10 -16 -9 -28 0 -21 1 -21 9 -2 10 24 12 9 3 -25
-6 -22 -9 -19 -24 30 -17 50 -18 52 -13 15 l4 -40 -15 45 c-17 53 -18 61 -5
40 8 -12 10 -11 10 7 0 14 -5 21 -13 17 -8 -3 -22 14 -36 48 -13 29 -36 70
-52 90 -31 40 -38 58 -14 38 33 -27 12 7 -28 45 -26 25 -30 28 -12 8 16 -18
25 -36 22 -40 -4 -3 -8 -4 -9 -2 -2 2 -14 16 -27 31 -21 24 -22 48 -2 48 4 0
22 -15 41 -34z m495 -77 c-10 -15 -25 -10 -19 6 4 8 10 12 15 9 5 -3 7 -10 4
-15z m344 8 c12 3 11 1 -3 -11 -11 -9 -24 -16 -28 -16 -15 0 -118 -80 -118
-92 0 -6 -3 -8 -7 -5 -3 4 2 16 12 27 24 27 8 25 -24 -2 -14 -13 -10 -6 9 15
47 51 121 100 133 88 5 -5 17 -7 26 -4z m21 -26 c0 -5 -21 -20 -47 -32 -27
-13 -73 -46 -103 -73 -30 -28 -44 -38 -30 -21 31 36 59 60 119 102 48 34 61
39 61 24z m-210 -21 c0 -5 -5 -10 -11 -10 -5 0 -7 5 -4 10 3 6 8 10 11 10 2 0
4 -4 4 -10z m205 -16 c-11 -8 -39 -27 -61 -42 -88 -58 -169 -145 -159 -171 5
-12 4 -13 -6 -4 -15 15 1 41 63 106 46 48 154 127 172 127 6 -1 2 -8 -9 -16z
m-602 -17 c4 3 7 4 7 1 0 -3 -8 -12 -17 -19 -11 -10 -14 -10 -9 -1 4 6 2 12
-3 12 -6 0 -11 5 -11 11 0 8 4 9 13 0 8 -6 17 -8 20 -4z m563 -42 c-27 -19
-54 -35 -59 -35 -5 0 -7 -7 -4 -15 4 -8 1 -17 -5 -21 -7 -4 -8 -3 -4 4 15 24
-7 11 -45 -28 -21 -21 -39 -36 -39 -32 0 21 164 161 190 161 8 1 -7 -15 -34
-34z m-549 3 c0 -13 -1 -17 -4 -10 -3 6 -10 9 -16 5 -7 -4 -6 1 2 10 17 21 17
21 18 -5z m167 -23 c-4 -8 -8 -15 -10 -15 -2 0 -4 7 -4 15 0 8 4 15 10 15 5 0
7 -7 4 -15z m206 -28 l-34 -32 30 36 c16 20 31 34 33 32 3 -2 -10 -18 -29 -36z
m-370 8 c-7 -9 -15 -13 -19 -10 -3 3 1 10 9 15 21 14 24 12 10 -5z m223 -22
c-4 -11 -3 -14 5 -9 8 5 10 2 6 -9 -8 -20 -16 -12 -19 20 -2 14 1 23 5 20 5
-3 6 -13 3 -22z m-60 -16 c3 -8 -1 -14 -8 -14 -7 0 -11 6 -8 14 3 7 6 13 8 13
2 0 5 -6 8 -13z m-175 -11 c-10 -7 -18 -18 -18 -25 0 -15 -17 -14 -26 2 -4 6
-4 9 1 5 5 -5 14 1 22 12 8 11 20 20 26 20 7 0 4 -7 -5 -14z m280 -14 c2 -7
-1 -12 -8 -12 -6 0 -9 4 -6 9 4 5 1 12 -4 14 -6 3 -5 4 2 3 6 -1 14 -8 16 -14z
m-254 -6 c-10 -8 -21 -12 -24 -10 -5 6 21 24 34 24 6 0 1 -6 -10 -14z m232
-33 c-3 -4 -6 -1 -6 6 0 7 -4 9 -10 6 -6 -4 -7 1 -3 11 6 15 7 15 15 -1 6 -9
7 -19 4 -22z m-259 -25 c0 -29 -1 -30 -10 -10 -6 12 -15 22 -21 22 -11 0 13
20 25 20 3 0 6 -14 6 -32z m45 14 c3 -11 0 -19 -7 -19 -7 0 -10 8 -7 19 2 10
6 18 7 18 1 0 5 -8 7 -18z m-152 -22 c0 -11 -2 -20 -4 -20 -2 0 -6 9 -9 20 -3
11 -1 20 4 20 5 0 9 -9 9 -20z m37 -27 c-3 -10 -5 -2 -5 17 0 19 2 27 5 18 2
-10 2 -26 0 -35z m321 22 c-3 -3 -9 2 -12 12 -6 14 -5 15 5 6 7 -7 10 -15 7
-18z m225 2 c-20 -62 -77 -127 -105 -119 -5 1 -7 -1 -4 -6 5 -9 -39 -57 -52
-57 -4 0 -6 -3 -4 -7 1 -5 -5 -8 -13 -8 -8 0 -14 -3 -14 -7 3 -20 -2 -31 -18
-37 -10 -4 -14 -4 -10 0 4 4 2 13 -4 21 -9 10 -8 18 5 31 21 24 21 38 -1 21
-16 -13 -17 -12 -4 3 7 10 17 16 21 13 10 -6 35 24 26 32 -3 3 -6 1 -6 -5 0
-7 -4 -12 -10 -12 -5 0 3 17 18 39 38 54 114 108 149 107 15 -1 27 -4 26 -9z
m-248 -7 c3 -5 1 -10 -4 -10 -6 0 -11 5 -11 10 0 6 2 10 4 10 3 0 8 -4 11 -10z
m-320 -40 c-7 -31 -17 -33 -21 -5 -1 8 2 13 7 9 5 -3 9 5 9 17 0 12 3 20 6 16
3 -3 3 -20 -1 -37z m107 6 c7 4 8 2 4 -5 -9 -13 -26 -5 -25 12 0 9 2 8 6 -1 2
-6 10 -9 15 -6z m35 -11 c0 -8 -4 -12 -9 -9 -5 3 -6 10 -3 15 9 13 12 11 12
-6z m237 7 c3 -5 -1 -9 -9 -9 -8 0 -12 4 -9 9 3 4 7 8 9 8 2 0 6 -4 9 -8z
m453 -5 c-4 -10 3 -12 23 -9 19 3 35 -3 48 -16 11 -11 29 -23 41 -27 28 -9 27
-27 -1 -20 -47 11 -98 13 -98 5 0 -5 12 -8 28 -8 37 1 76 -12 66 -22 -5 -5
-27 -5 -49 -1 -69 13 -212 1 -245 -21 -12 -8 -12 -8 3 -4 70 22 257 26 257 5
0 -8 -20 -10 -62 -6 -36 3 -54 2 -43 -3 11 -4 23 -6 28 -3 4 2 7 -1 7 -6 0 -6
-10 -12 -22 -12 -94 -5 -120 -4 -124 3 -3 4 3 8 12 8 10 0 15 3 11 6 -3 4 -13
4 -22 0 -13 -5 -14 -10 -5 -27 7 -12 18 -18 26 -15 8 3 14 1 14 -4 0 -6 9 -10
21 -10 11 0 18 -4 15 -8 -2 -4 0 -14 6 -22 8 -12 9 -12 4 2 -6 20 10 34 17 16
4 -9 8 -10 14 -2 4 5 24 11 43 12 41 3 100 -40 126 -90 20 -38 44 -129 32
-122 -4 3 -8 -3 -8 -13 0 -11 -5 -24 -12 -31 -7 -7 -9 -12 -5 -12 3 0 -4 -10
-16 -23 -23 -24 -45 -36 -86 -43 -23 -5 -23 -4 -9 18 9 13 18 33 21 43 4 19 5
19 6 -1 0 -11 -5 -26 -11 -33 -11 -10 -10 -11 5 -6 9 4 17 13 17 21 0 8 5 14
11 14 5 0 7 -5 3 -12 -5 -7 -3 -8 5 -4 9 6 8 13 -6 29 -10 11 -13 17 -6 14 23
-14 19 56 -6 96 -24 37 -38 49 -28 24 5 -13 -4 -14 -57 -8 -4 1 -6 8 -2 16 3
9 -4 21 -20 31 -29 19 -25 31 5 15 15 -8 22 -8 27 1 4 7 4 10 -1 6 -4 -4 -17
-3 -27 3 -33 18 -45 -6 -13 -27 20 -13 23 -19 13 -25 -7 -5 -17 -9 -23 -9 -5
0 -3 5 5 10 15 9 11 12 -20 14 -8 1 -14 9 -14 18 1 10 -4 14 -12 11 -8 -3 -11
-10 -7 -17 4 -6 -1 -5 -10 2 -9 8 -22 10 -28 6 -8 -5 -10 -2 -5 7 4 8 0 5 -10
-6 -14 -17 -16 -17 -11 -2 4 9 3 17 -1 18 -30 3 -47 9 -50 18 -5 16 -19 13
-19 -2 0 -8 6 -14 14 -15 7 -1 20 -3 28 -4 15 -1 21 -17 8 -19 -5 0 -17 -3
-28 -6 -11 -3 -33 -5 -50 -4 -24 0 -27 -2 -15 -10 12 -9 10 -10 -8 -6 -12 3
-20 1 -17 -3 3 -5 1 -11 -5 -15 -5 -3 -10 -1 -10 5 0 5 -14 -4 -31 -22 -17
-18 -28 -27 -24 -20 3 6 1 12 -5 12 -6 0 -13 -7 -16 -15 -4 -8 -13 -15 -21
-15 -8 0 -12 4 -9 8 2 4 0 14 -6 22 -8 13 -9 12 -5 -1 3 -9 0 -22 -6 -29 -9
-10 -9 -11 0 -6 6 3 14 2 18 -4 3 -5 -1 -10 -10 -10 -9 0 -13 -4 -10 -10 3 -5
2 -10 -4 -10 -14 0 -61 -48 -61 -62 0 -6 -3 -9 -6 -6 -3 4 -18 -7 -33 -23 -28
-29 -51 -29 -28 0 11 14 10 14 -5 2 -13 -10 -15 -18 -8 -31 8 -16 6 -18 -15
-16 -13 2 -22 -1 -19 -5 3 -5 0 -17 -5 -26 -6 -10 -11 -15 -11 -11 0 4 -24
-16 -53 -45 -89 -88 -168 -152 -244 -198 -24 -14 -41 -28 -39 -30 3 -3 -4 -5
-15 -6 -10 -1 -26 -9 -35 -17 -8 -9 -22 -16 -30 -16 -8 0 -14 -4 -14 -10 0 -5
-7 -7 -15 -4 -8 4 -15 1 -15 -7 0 -7 -3 -9 -7 -6 -3 4 -12 2 -20 -4 -7 -6 -13
-8 -13 -5 0 4 -9 2 -20 -4 -11 -6 -20 -7 -20 -1 0 5 15 14 33 20 113 40 294
196 426 368 35 46 67 80 71 78 5 -3 12 0 16 6 4 8 3 9 -4 5 -19 -12 -14 3 14
40 14 18 30 32 34 29 5 -3 12 0 16 6 5 8 3 9 -6 4 -23 -14 -7 11 60 96 36 46
64 86 63 91 -2 4 3 7 10 5 6 -1 11 4 9 12 -2 8 3 11 12 8 10 -4 13 -1 10 7 -8
20 93 103 171 141 85 41 92 42 179 44 52 1 67 -2 63 -12z m-801 -9 c4 -7 3 -8
-4 -4 -7 4 -12 3 -12 -3 0 -5 5 -11 11 -13 6 -2 0 -9 -15 -16 -16 -7 -27 -8
-31 -1 -4 5 -3 9 2 8 20 -3 34 2 28 11 -6 9 1 30 10 30 2 0 7 -5 11 -12z m114
-27 c0 -4 -6 -8 -13 -8 -8 0 -14 6 -14 13 0 7 6 10 14 7 7 -3 13 -8 13 -12z
m157 -13 c-3 -7 -5 -2 -5 12 0 14 2 19 5 13 2 -7 2 -19 0 -25z m-290 -15 c-4
-3 1 -12 11 -20 15 -13 15 -13 -6 -3 -19 9 -23 30 -5 30 4 0 3 -3 0 -7z m118
-13 c3 -5 1 -10 -4 -10 -6 0 -11 5 -11 10 0 6 2 10 4 10 3 0 8 -4 11 -10z
m-537 -35 c-3 -3 -9 2 -12 12 -6 14 -5 15 5 6 7 -7 10 -15 7 -18z m410 -20
c-3 -3 -9 2 -12 12 -6 14 -5 15 5 6 7 -7 10 -15 7 -18z m67 7 c-3 -3 -11 0
-18 7 -9 10 -8 11 6 5 10 -3 15 -9 12 -12z m-455 -32 c0 -5 -2 -10 -4 -10 -3
0 -8 5 -11 10 -3 6 -1 10 4 10 6 0 11 -4 11 -10z m494 2 c3 -5 -1 -9 -9 -9 -8
0 -12 4 -9 9 3 4 7 8 9 8 2 0 6 -4 9 -8z m-84 -18 c0 -8 -19 -13 -24 -6 -3 5
1 9 9 9 8 0 15 -2 15 -3z m25 -3 c3 -5 2 -12 -3 -15 -5 -3 -9 1 -9 9 0 17 3
19 12 6z m755 -182 c0 9 10 3 25 -13 14 -15 25 -30 25 -34 0 -4 -7 1 -14 11
-21 28 -26 20 -10 -18 8 -19 11 -34 7 -33 -14 3 -43 -14 -38 -22 3 -5 -4 -6
-16 -3 -19 5 -20 3 -13 -18 4 -13 8 -32 9 -42 1 -9 8 -23 15 -30 12 -10 12 -9
1 6 -10 13 -11 17 -1 17 9 0 9 4 -1 18 -13 15 -12 16 3 3 10 -7 15 -17 12 -22
-3 -5 2 -9 10 -9 9 0 16 -4 16 -9 0 -5 3 -17 7 -26 5 -15 3 -16 -15 -6 -15 8
-22 8 -22 1 0 -5 6 -10 14 -10 8 0 16 -7 20 -15 4 -11 -1 -15 -17 -15 -18 0
-19 2 -7 10 13 8 12 10 -2 10 -10 0 -18 -5 -18 -10 0 -13 -35 7 -72 39 -52 46
-61 132 -18 181 11 13 20 20 20 16 0 -3 10 0 23 9 13 8 27 12 30 8 4 -3 7 0 7
8 0 11 2 11 10 -1 8 -12 10 -12 10 -1z m100 -8 c13 -25 13 -31 0 -31 -5 0 -9
3 -9 8 3 19 -2 33 -11 27 -5 -3 -10 -1 -10 4 0 18 19 12 30 -8z m76 -180 c-13
-12 -18 -13 -28 -2 -11 10 -9 11 6 5 12 -5 17 -4 13 3 -3 5 1 10 9 10 13 0 13
-2 0 -16z m-86 -10 c2 -1 -1 -6 -8 -13 -20 -20 -13 -32 8 -13 12 11 20 13 20
6 0 -7 5 -9 10 -6 8 5 7 11 -1 21 -15 18 -2 18 16 0 12 -12 12 -15 -3 -22 -9
-4 -21 -6 -25 -5 -10 2 -38 -25 -32 -31 3 -3 -2 -5 -10 -5 -8 0 -12 4 -9 9 3
4 -1 8 -8 9 -10 0 -10 2 0 6 6 2 9 10 5 16 -18 29 -9 36 37 28z m-1450 -65 c0
-2 -8 -10 -17 -17 -16 -13 -17 -12 -4 4 13 16 21 21 21 13z m453 -60 c-10 -13
-20 -22 -22 -20 -4 4 29 44 36 44 2 0 -4 -11 -14 -24z m-13 -49 c0 -2 -10 -12
-22 -23 l-23 -19 19 23 c18 21 26 27 26 19z m-76 -38 c-14 -23 -174 -111 -209
-115 -11 -2 -14 0 -7 2 6 3 10 10 7 14 -3 5 -1 12 5 15 6 4 9 3 8 -2 -6 -18 9
-15 57 9 86 43 136 78 129 90 -4 7 -3 8 5 4 6 -4 9 -12 5 -17z m-244 -119 c8
-5 11 -10 5 -10 -5 0 -17 5 -25 10 -8 5 -10 10 -5 10 6 0 17 -5 25 -10z m-136
-21 c-2 -4 2 -9 8 -12 7 -2 0 -4 -17 -4 -16 0 -24 2 -17 4 6 3 10 8 8 12 -3 4
1 8 9 8 8 0 12 -4 9 -8z m100 -20 c-6 -11 -44 -18 -44 -8 0 5 9 9 20 9 14 0
18 5 14 18 -5 14 -4 14 4 2 6 -8 9 -17 6 -21z m93 25 c-3 -3 -12 -4 -19 -1 -8
3 -5 6 6 6 11 1 17 -2 13 -5z m-150 -26 c2 -17 0 -19 -7 -8 -5 8 -6 18 -4 22
8 12 10 10 11 -14z m93 12 c0 -5 -5 -10 -11 -10 -5 0 -7 5 -4 10 3 6 8 10 11
10 2 0 4 -4 4 -10z m-210 -20 c0 -5 -4 -10 -10 -10 -5 0 -10 5 -10 10 0 6 5
10 10 10 6 0 10 -4 10 -10z m246 1 c-6 -9 -46 -22 -46 -15 0 3 10 9 23 14 29
11 29 11 23 1z m-153 -8 c-7 -2 -19 -2 -25 0 -7 3 -2 5 12 5 14 0 19 -2 13 -5z
m-130 -18 c-3 -9 -8 -14 -10 -11 -3 3 -2 9 2 15 9 16 15 13 8 -4z"/>
<path d="M2790 4039 c0 -5 5 -7 10 -4 6 3 10 8 10 11 0 2 -4 4 -10 4 -5 0 -10
-5 -10 -11z"/>
<path d="M2736 3994 c-9 -24 -2 -26 12 -4 7 11 8 20 3 20 -5 0 -12 -7 -15 -16z"/>
<path d="M2653 3615 c0 -8 4 -12 9 -9 5 3 6 10 3 15 -9 13 -12 11 -12 -6z"/>
<path d="M2649 3583 c-6 -38 -7 -64 -3 -60 7 6 14 67 9 67 -3 0 -6 -3 -6 -7z"/>
<path d="M2627 3503 c-4 -3 -7 -13 -7 -21 0 -12 3 -12 15 -2 8 7 15 16 15 21
0 11 -14 12 -23 2z"/>
<path d="M2240 3503 c0 -6 4 -13 9 -15 5 -1 24 -34 43 -71 33 -66 34 -67 34
-33 0 20 -3 31 -7 25 -9 -15 -19 14 -13 38 3 11 -2 25 -10 32 -12 10 -16 11
-16 1 0 -7 -9 -2 -20 11 -10 13 -19 19 -20 12z m60 -54 c0 -6 -4 -7 -10 -4 -5
3 -10 11 -10 16 0 6 5 7 10 4 6 -3 10 -11 10 -16z"/>
<path d="M2340 3360 c0 -5 5 -10 11 -10 5 0 7 5 4 10 -3 6 -8 10 -11 10 -2 0
-4 -4 -4 -10z"/>
<path d="M2360 3300 c0 -5 5 -10 11 -10 5 0 7 5 4 10 -3 6 -8 10 -11 10 -2 0
-4 -4 -4 -10z"/>
<path d="M2964 3474 c-48 -33 -49 -33 -42 -39 3 -3 12 1 20 9 8 8 30 24 49 35
19 12 29 21 23 21 -6 0 -29 -12 -50 -26z"/>
<path d="M2891 3177 c-20 -17 -143 -142 -160 -162 -9 -11 -10 -20 -3 -27 6 -6
12 -6 16 1 4 6 4 11 1 11 -4 0 4 14 16 31 14 20 24 27 29 19 5 -8 11 -6 20 5
11 13 10 15 -6 9 -16 -6 -15 -3 5 19 13 15 28 24 32 21 5 -3 7 1 4 8 -3 7 11
23 30 36 19 12 35 27 35 32 0 12 -1 12 -19 -3z"/>
<path d="M2807 3135 c-20 -19 -37 -38 -37 -42 0 -4 18 11 40 32 37 36 44 45
37 45 -2 0 -20 -16 -40 -35z"/>
<path d="M3115 3152 c-16 -2 -34 -7 -38 -12 -5 -4 6 -5 25 -3 18 3 45 6 61 7
15 0 27 4 27 8 0 4 -10 7 -22 5 -13 -1 -36 -3 -53 -5z"/>
<path d="M3028 3133 c-10 -2 -18 -9 -18 -14 0 -6 10 -5 23 2 37 20 36 23 -5
12z"/>
<path d="M3070 3110 c-71 -18 -133 -44 -150 -65 -6 -8 13 -1 43 16 55 29 135
50 214 53 59 3 63 12 5 12 -26 0 -76 -7 -112 -16z"/>
<path d="M3240 3122 c0 -4 9 -8 19 -8 11 0 17 4 15 8 -3 4 -12 8 -20 8 -8 0
-14 -4 -14 -8z"/>
<path d="M2980 3112 c-29 -13 -110 -64 -110 -69 0 -3 17 5 38 18 20 12 49 29
65 36 34 18 40 30 7 15z"/>
<path d="M3117 3090 c-65 -11 -74 -22 -11 -13 27 4 61 7 77 7 15 0 27 4 27 8
0 9 -27 9 -93 -2z"/>
<path d="M3035 3070 c-3 -5 -1 -10 4 -10 6 0 11 5 11 10 0 6 -2 10 -4 10 -3 0
-8 -4 -11 -10z"/>
<path d="M2950 3030 c-9 -6 -10 -10 -3 -10 6 0 15 5 18 10 8 12 4 12 -15 0z"/>
<path d="M3135 3030 c3 -5 8 -10 11 -10 2 0 4 5 4 10 0 6 -5 10 -11 10 -5 0
-7 -4 -4 -10z"/>
<path d="M2870 3020 c-8 -5 -12 -11 -10 -14 3 -2 14 2 24 10 22 15 10 19 -14
4z"/>
<path d="M2809 3003 c-13 -16 -12 -17 4 -4 16 13 21 21 13 21 -2 0 -10 -8 -17
-17z"/>
<path d="M2900 3005 c-14 -8 -20 -14 -14 -15 5 0 19 7 30 15 24 18 16 19 -16
0z"/>
<path d="M2767 2930 c-39 -38 -66 -70 -59 -70 6 0 16 9 22 21 7 12 18 18 26
15 9 -4 12 -2 8 5 -3 6 16 30 42 54 27 25 45 44 41 45 -5 0 -41 -31 -80 -70z"/>
<path d="M2839 2963 l-24 -26 27 19 c15 10 28 22 28 27 0 12 -5 8 -31 -20z"/>
<path d="M3006 2962 c-3 -5 1 -9 9 -9 8 0 12 4 9 9 -3 4 -7 8 -9 8 -2 0 -6 -4
-9 -8z"/>
<path d="M3050 2960 c0 -5 5 -10 11 -10 5 0 7 5 4 10 -3 6 -8 10 -11 10 -2 0
-4 -4 -4 -10z"/>
<path d="M3190 2940 c0 -5 5 -10 10 -10 6 0 10 5 10 10 0 6 -4 10 -10 10 -5 0
-10 -4 -10 -10z"/>
<path d="M3028 2933 c7 -3 16 -2 19 1 4 3 -2 6 -13 5 -11 0 -14 -3 -6 -6z"/>
<path d="M3079 2922 c-13 -16 -13 -16 5 -2 18 13 19 13 14 -1 -5 -12 -1 -15
18 -11 21 4 25 17 6 17 -4 0 -12 4 -18 8 -7 4 -18 -1 -25 -11z"/>
<path d="M3225 2926 c-13 -9 -15 -15 -7 -20 9 -5 8 -15 -3 -36 -11 -21 -12
-31 -3 -36 6 -4 8 -3 5 3 -4 6 0 13 8 16 10 4 12 1 9 -11 -3 -9 1 -6 10 8 13
22 15 23 21 8 4 -10 15 -18 24 -18 12 0 13 -2 3 -8 -9 -6 -7 -14 9 -31 12 -12
24 -19 27 -16 4 4 -1 12 -11 19 -19 14 -24 31 -6 20 7 -4 0 10 -14 32 -15 21
-24 40 -21 43 4 3 11 -2 18 -12 24 -40 37 -52 22 -22 -8 17 -27 40 -44 52 -25
19 -32 20 -47 9z m40 -24 c-3 -3 2 -17 11 -31 l15 -26 -20 24 c-12 13 -21 19
-21 13 0 -5 -7 -12 -15 -16 -12 -4 -13 -2 -5 13 5 11 13 21 17 23 5 3 3 3 -4
2 -17 -4 -26 13 -11 19 14 5 42 -13 33 -21z"/>
<path d="M2914 2904 c-18 -14 -18 -15 4 -4 12 6 22 13 22 15 0 8 -5 6 -26 -11z"/>
<path d="M2859 2880 l-24 -20 27 13 c16 6 28 15 28 20 0 11 -6 9 -31 -13z"/>
<path d="M2930 2890 c-9 -6 -10 -10 -3 -10 6 0 15 5 18 10 8 12 4 12 -15 0z"/>
<path d="M2960 2880 c-8 -5 -10 -10 -5 -10 6 0 17 5 25 10 8 5 11 10 5 10 -5
0 -17 -5 -25 -10z"/>
<path d="M2860 2855 c-7 -8 -9 -15 -5 -15 4 0 1 -8 -6 -17 -13 -16 -12 -17 3
-4 10 7 15 17 13 22 -3 4 3 12 12 18 10 6 13 11 7 11 -6 0 -17 -7 -24 -15z"/>
<path d="M2816 2852 c-2 -4 -1 -14 4 -22 7 -11 9 -9 7 8 -1 24 -3 26 -11 14z"/>
<path d="M2686 2834 c-5 -14 -4 -15 9 -4 17 14 19 20 6 20 -5 0 -12 -7 -15
-16z"/>
<path d="M2656 2805 c-9 -26 -7 -32 5 -12 6 10 9 21 6 23 -2 3 -7 -2 -11 -11z"/>
<path d="M3312 2733 l1 -38 4 34 c4 27 7 31 15 20 8 -12 9 -12 6 0 -3 8 -10
17 -16 19 -8 2 -11 -9 -10 -35z"/>
<path d="M2675 2729 c-4 -6 -5 -12 -2 -15 2 -3 7 2 10 11 7 17 1 20 -8 4z"/>
<path d="M2660 2685 c-7 -8 -9 -15 -6 -15 4 0 14 7 22 15 9 8 11 15 6 15 -5 0
-15 -7 -22 -15z"/>
<path d="M2516 2613 c-6 -14 -5 -15 5 -6 7 7 10 15 7 18 -3 3 -9 -2 -12 -12z"/>
<path d="M2489 2573 c-13 -16 -12 -17 4 -4 9 7 17 15 17 17 0 8 -8 3 -21 -13z"/>
<path d="M2459 2533 c-13 -16 -12 -17 4 -4 9 7 17 15 17 17 0 8 -8 3 -21 -13z"/>
<path d="M2430 2499 c0 -5 5 -7 10 -4 6 3 10 8 10 11 0 2 -4 4 -10 4 -5 0 -10
-5 -10 -11z"/>
<path d="M3164 2767 c20 -16 27 -29 23 -41 -4 -10 -3 -15 3 -11 23 14 -6 66
-40 73 -8 2 -2 -8 14 -21z"/>
<path d="M3114 2581 c7 -11 46 -35 46 -28 0 3 -12 12 -26 22 -15 9 -23 12 -20
6z"/>
<path d="M3240 2590 c-9 -6 -10 -10 -3 -10 6 0 15 5 18 10 8 12 4 12 -15 0z"/>
<path d="M3195 4114 c-22 -8 -48 -18 -57 -21 -10 -3 -18 -9 -18 -13 0 -7 117
35 129 46 9 8 -15 3 -54 -12z"/>
<path d="M3030 4079 c-12 -9 -12 -10 4 -5 14 5 17 3 12 -11 -6 -15 -5 -16 5
-5 18 17 -1 35 -21 21z"/>
<path d="M3095 4071 c-3 -5 -1 -12 5 -16 15 -9 12 -25 -6 -25 -8 0 -13 4 -10
8 3 5 -1 9 -9 9 -8 0 -12 -4 -9 -8 2 -4 0 -10 -6 -14 -5 -3 -10 -12 -10 -18 0
-8 3 -8 8 -2 4 6 14 11 22 13 11 1 9 -2 -4 -13 -14 -10 -23 -12 -32 -4 -9 7
-12 6 -10 -6 1 -9 8 -20 15 -25 10 -6 9 -10 -5 -19 -11 -6 -14 -11 -8 -11 14
0 36 25 28 33 -3 3 3 8 13 11 10 4 26 22 35 41 15 31 16 35 2 35 -8 0 -12 5
-9 10 3 6 4 10 1 10 -3 0 -7 -4 -11 -9z"/>
<path d="M3019 4047 c6 -8 8 -17 4 -21 -4 -4 0 -4 10 -1 14 6 14 9 2 21 -17
18 -31 18 -16 1z"/>
<path d="M2990 4030 c-9 -6 -10 -10 -3 -10 6 0 15 5 18 10 8 12 4 12 -15 0z"/>
<path d="M198 4002 c-43 -4 -44 -8 -21 -83 9 -30 17 -56 18 -59 2 -7 82 -259
122 -384 19 -59 36 -113 38 -120 1 -6 5 -18 8 -26 9 -24 39 -120 41 -133 3
-18 105 -337 121 -377 7 -19 13 -37 12 -40 0 -3 8 -30 18 -60 11 -30 20 -57
20 -60 1 -9 56 -185 70 -225 7 -22 28 -87 45 -145 18 -58 41 -112 51 -122 21
-18 66 -15 85 5 9 9 78 215 88 262 1 6 12 39 23 75 12 36 47 146 78 245 86
274 97 307 105 298 6 -6 46 -131 94 -288 2 -5 5 -17 8 -25 3 -8 25 -76 48
-150 23 -74 55 -178 72 -230 17 -52 31 -100 32 -107 1 -7 5 -16 9 -19 4 -4 7
-18 7 -30 0 -22 27 -45 60 -51 22 -3 58 23 65 49 4 13 27 88 52 168 100 321
156 498 175 555 11 33 21 67 23 75 2 8 31 103 65 210 34 107 75 236 90 285 16
50 56 179 90 288 46 144 60 201 52 209 -12 12 -254 15 -290 4 -18 -6 -39 -46
-43 -81 -1 -5 -7 -26 -14 -45 -8 -19 -37 -109 -65 -200 -29 -91 -60 -190 -70
-220 -10 -30 -37 -116 -60 -190 -51 -164 -60 -190 -70 -190 -4 0 -22 46 -39
103 -59 190 -122 391 -156 497 -70 219 -85 269 -85 283 0 36 -66 62 -88 35 -8
-12 -79 -220 -87 -258 -2 -8 -8 -27 -14 -43 -6 -15 -13 -38 -15 -50 -2 -12
-12 -42 -21 -67 -10 -25 -21 -58 -25 -75 -20 -75 -132 -421 -139 -428 -4 -4
-21 36 -38 90 -17 54 -52 166 -78 248 -26 83 -49 159 -51 170 -2 11 -8 29 -13
40 -9 18 -72 216 -77 240 -7 35 -39 122 -49 133 -11 13 -186 21 -277 14z"/>
<path d="M2994 3982 c4 -7 2 -12 -4 -12 -7 0 -10 -7 -6 -15 5 -13 -5 -19 -26
-16 -4 0 -5 -5 -2 -12 2 -7 -7 -19 -21 -27 -14 -7 -25 -17 -25 -22 0 -5 15 1
33 14 17 13 37 23 42 23 6 0 10 9 10 20 0 11 4 25 8 32 4 6 2 15 -4 19 -8 4
-9 3 -5 -4z"/>
<path d="M3012 3967 c-6 -7 -8 -18 -4 -24 6 -9 11 -6 20 7 13 22 0 36 -16 17z"/>
<path d="M3066 3942 c-2 -4 4 -8 14 -8 10 0 16 4 14 8 -3 4 -9 8 -14 8 -5 0
-11 -4 -14 -8z"/>
<path d="M3030 3926 c0 -2 7 -7 16 -10 8 -3 12 -2 9 4 -6 10 -25 14 -25 6z"/>
<path d="M3035 3780 c-3 -6 1 -7 9 -4 18 7 21 14 7 14 -6 0 -13 -4 -16 -10z"/>
<path d="M2965 3760 c-10 -11 -22 -17 -28 -13 -6 4 -7 1 -2 -7 6 -10 3 -12
-11 -7 -18 7 -18 7 -1 -7 21 -16 50 -10 44 8 -3 6 2 19 11 29 21 24 9 22 -13
-3z"/>
<path d="M2330 3652 c0 -5 7 -15 15 -22 8 -7 15 -8 15 -2 0 5 -7 15 -15 22 -8
7 -15 8 -15 2z"/>
<path d="M2230 3625 c22 -24 30 -29 30 -22 0 8 -38 47 -45 47 -5 0 2 -11 15
-25z"/>
<path d="M2769 3593 c-13 -16 -12 -17 4 -4 16 13 21 21 13 21 -2 0 -10 -8 -17
-17z"/>
<path d="M2306 3546 c21 -15 30 -14 19 3 -3 6 -14 11 -23 11 -13 0 -13 -2 4
-14z"/>
<path d="M2400 3479 c0 -5 5 -7 10 -4 6 3 10 8 10 11 0 2 -4 4 -10 4 -5 0 -10
-5 -10 -11z"/>
<path d="M2354 3455 c8 -7 22 -27 30 -46 9 -19 15 -27 16 -19 0 13 1 13 10 0
5 -8 12 -11 15 -8 4 4 -3 15 -15 25 -12 10 -26 27 -30 39 -5 11 -16 21 -25 21
-16 0 -16 -1 -1 -12z"/>
<path d="M2745 3430 c-3 -6 1 -7 9 -4 18 7 21 14 7 14 -6 0 -13 -4 -16 -10z"/>
<path d="M2775 3382 c2 -3 0 -13 -6 -23 -14 -27 -4 -24 14 4 13 20 13 24 1 24
-8 0 -12 -2 -9 -5z"/>
<path d="M2010 3235 c0 -5 23 -35 46 -59 5 -6 13 -20 17 -30 4 -10 10 -16 14
-12 7 7 -58 106 -69 106 -5 0 -8 -2 -8 -5z"/>
<path d="M2090 2966 c0 -9 5 -16 10 -16 6 0 10 4 10 9 0 6 -4 13 -10 16 -5 3
-10 -1 -10 -9z"/>
<path d="M2092 2896 c-2 -49 -11 -93 -31 -152 -10 -29 -14 -51 -10 -48 23 14
70 234 50 234 -4 0 -8 -15 -9 -34z"/>
<path d="M2032 2873 c-5 -114 -56 -234 -135 -314 -29 -30 -61 -60 -72 -67 -11
-7 -6 -6 10 2 47 23 112 97 150 172 19 37 35 74 35 82 0 11 3 12 13 3 10 -8
14 -7 14 4 0 8 -4 12 -9 9 -8 -5 -3 70 8 129 1 9 -1 17 -5 17 -4 0 -8 -17 -9
-37z"/>
<path d="M2059 2843 c0 -5 -2 -16 -4 -26 -2 -11 -1 -16 3 -13 8 8 14 46 7 46
-3 0 -5 -3 -6 -7z"/>
<path d="M1997 2625 c-19 -30 -32 -55 -29 -55 7 0 18 15 55 78 31 53 13 36
-26 -23z"/>
<path d="M1900 2508 c-30 -28 -46 -44 -35 -37 11 8 26 19 32 26 7 6 25 21 39
32 15 12 25 23 23 25 -2 2 -29 -18 -59 -46z"/>
<path d="M1750 2460 c-25 -11 -39 -19 -31 -19 22 -1 81 22 81 31 0 4 -1 8 -2
7 -2 -1 -23 -9 -48 -19z"/>
<path d="M3788 1988 c-168 -56 -218 -242 -96 -358 39 -36 84 -59 198 -100 46
-17 94 -37 107 -45 54 -35 7 -84 -77 -80 -48 2 -105 26 -112 47 -6 17 -178
-37 -178 -56 0 -27 80 -104 132 -127 46 -21 69 -24 173 -24 116 0 122 1 175
31 123 69 154 212 68 309 -47 55 -83 76 -218 130 -102 41 -126 54 -128 72 -4
28 33 53 79 55 48 2 108 -29 115 -59 5 -17 11 -22 23 -18 9 4 43 16 76 27 82
28 86 32 71 70 -16 43 -88 104 -149 124 -72 25 -188 25 -259 2z"/>
<path d="M877 1992 c-16 -3 -17 -30 -17 -373 l0 -369 95 0 95 0 0 85 c0 61 4
85 13 86 29 1 106 11 157 21 30 5 61 10 68 11 6 0 12 4 12 9 0 4 3 7 8 6 14
-4 67 30 100 64 48 50 70 118 67 203 -5 128 -70 213 -185 245 -41 12 -367 21
-413 12z m331 -178 c52 -6 82 -45 76 -99 -7 -73 -42 -100 -141 -109 -34 -3
-68 -7 -75 -8 -10 -2 -14 23 -16 110 -3 109 -2 113 17 107 11 -3 22 -2 25 3 5
8 18 8 114 -4z"/>
<path d="M1740 1945 c-2 -247 2 -422 10 -461 22 -97 81 -173 167 -215 40 -19
66 -23 156 -25 101 -2 111 -1 167 28 33 16 77 49 99 74 68 78 74 105 78 394
l5 256 -91 -1 c-50 -1 -93 -3 -95 -6 -3 -3 -6 -106 -7 -230 -1 -245 -6 -272
-61 -312 -37 -27 -133 -29 -171 -4 -59 38 -62 50 -67 311 l-5 240 -93 0 -92 1
0 -50z"/>
<path d="M2734 1991 c-2 -2 -4 -170 -4 -372 l0 -368 233 1 c139 0 237 4 245
10 6 6 12 8 12 4 0 -11 74 31 96 56 80 87 68 230 -24 288 l-39 25 25 19 c65
51 77 175 25 249 -29 41 -79 74 -130 84 -34 6 -432 10 -439 4z m390 -187 c9
-8 17 -20 17 -25 1 -5 2 -15 3 -21 5 -34 -44 -57 -156 -73 -21 -2 -43 -6 -50
-7 -9 -2 -14 17 -16 70 l-3 72 95 0 c73 0 98 -4 110 -16z m41 -277 c22 -31 18
-63 -9 -84 -19 -16 -41 -19 -127 -18 l-104 0 0 50 0 50 45 7 c80 12 125 20
128 23 9 8 55 -11 67 -28z"/>
</g>
</svg>
